<?xml version="1.0" encoding="utf-8"?>
<!-- Generator: Adobe Illustrator 23.0.0, SVG Export Plug-In . SVG Version: 6.00 Build 0)  -->
<svg version="1.1" id="Layer_1" xmlns:serif="http://www.serif.com/"
	 xmlns="http://www.w3.org/2000/svg" xmlns:xlink="http://www.w3.org/1999/xlink" x="0px" y="0px" viewBox="0 0 447.1 150"
	 style="enable-background:new 0 0 447.1 150;" xml:space="preserve">
<style type="text/css">
	.st0{fill:#E94129;}
	.st1{fill:#FFFFFF;}
</style>
<path id="Layer-1" serif:id="Layer 1" class="st0" d="M427.5,33.3l19,18.5l-22.3,22.9l22.9,22.3l-18.5,18.9l-22.9-22.3l-22.4,23
	l-19-18.4l22.4-23L363.8,53l18.5-18.9l22.9,22.3L427.5,33.3L427.5,33.3z"/>
<path id="Layer-2" serif:id="Layer 2" class="st1" d="M30,112.3H0V37.5h27.8c13.3,0,22.2,5.2,22.2,19.4c0,6.8-2.2,12.2-8.2,15.3v0.2
	c10.7,1.4,15.3,8.6,15.3,19.1C57.1,107.3,43.7,112.3,30,112.3z M22,97.4c5.8,0,15.5,0.3,15.5-7.9c0-9-9.6-8.1-16-8.1h-2v16.1
	C19.5,97.4,22,97.4,22,97.4z M20.9,52.4h-1.4v14.5h2.2c5.2,0,10.5-0.9,10.5-7.2C32.2,52.8,26.1,52.4,20.9,52.4z"/>
<rect id="Layer-3" x="67.2" y="37.5" serif:id="Layer 3" class="st1" width="19.5" height="74.8">
</rect>
<path id="Layer-4" serif:id="Layer 4" class="st1" d="M178.5,73.6c0,24.2-17.4,41.3-41.4,41.3S95.7,97.8,95.7,73.6
	c0-22.6,19.9-38.5,41.4-38.5S178.5,50.9,178.5,73.6z M115.9,73.6c0,12.9,9.5,22.3,21.2,22.3c11.6,0,21.2-9.4,21.2-22.3
	c0-10.3-9.5-19.8-21.2-19.8S115.9,63.3,115.9,73.6z"/>
<path id="Layer-5" serif:id="Layer 5" class="st1" d="M226.3,56.8c-3.6-3-8.1-5-12.9-5c-3.6,0-8.3,2.1-8.3,6.2
	c0,4.4,5.3,6.1,8.6,7.2l5,1.5c10.4,3.1,18.5,8.3,18.5,20.4c0,7.4-1.8,15.1-7.7,20.1s-13.7,7.1-21.3,7.1c-9.4,0-18.7-3.2-26.3-8.5
	l8.3-15.7c4.9,4.3,10.6,7.7,17.3,7.7c4.6,0,9.4-2.3,9.4-7.5c0-5.5-7.6-7.3-11.8-8.5c-12.3-3.5-20.3-6.7-20.3-21.2
	c0-15.2,10.8-25.1,25.8-25.1c7.5,0,16.8,2.4,23.4,6.2L226.3,56.8z"/>
<path id="Layer-6" serif:id="Layer 6" class="st1" d="M265.8,112.3h-19.5V37.5h29.8c16.1,0,27.2,7.4,27.2,24.6
	c0,17.7-9.5,25.4-26.5,25.4h-11V112.3L265.8,112.3z M269.1,53.3h-3.3v18.7h3.3c7.1,0,14,0,14-9.1C283.1,53.3,276.7,53.3,269.1,53.3
	L269.1,53.3z"/>
<path id="Layer-7" serif:id="Layer 7" class="st1" d="M331.5,54v12.5h22v16.5h-22v12.9h23.1v16.4H312V37.5h42.6V54H331.5z"/>
</svg>
