<?xml version="1.0" encoding="UTF-8" standalone="no"?><!DOCTYPE svg PUBLIC "-//W3C//DTD SVG 1.1//EN" "http://www.w3.org/Graphics/SVG/1.1/DTD/svg11.dtd"><svg width="100%" height="100%" viewBox="0 0 120 19" version="1.1" xmlns="http://www.w3.org/2000/svg" xmlns:xlink="http://www.w3.org/1999/xlink" xml:space="preserve" xmlns:serif="http://www.serif.com/" style="fill-rule:evenodd;clip-rule:evenodd;stroke-linejoin:round;stroke-miterlimit:1.41421;"><path d="M10.548,18.004l-2.246,0l-1.854,-9.868l-1.854,9.868l-2.328,0l-2.266,-14.391l2.348,0l1.195,10.279l1.854,-10.279l2.143,0l1.854,10.279l1.195,-10.279l2.225,0l-2.266,14.391Z" style="fill:#6acbdc;fill-rule:nonzero;"/><path d="M14.051,18.004l0,-14.391l6.324,0l0,2.097l-3.934,0l0,3.947l3.296,0l0,2.097l-3.296,0l0,4.153l3.996,0l0,2.097l-6.386,0Z" style="fill:#6acbdc;fill-rule:nonzero;"/><path d="M29.028,5.71l-1.215,0l0,10.197l1.215,0c0.783,0 1.319,-0.288 1.319,-1.316l0,-7.565c0,-1.028 -0.536,-1.316 -1.319,-1.316Zm3.709,0.945l0,8.306c0,2.179 -1.442,3.043 -3.626,3.043l-3.688,0l0,-14.391l3.688,0c2.184,0 3.626,0.863 3.626,3.042Z" style="fill:#6acbdc;fill-rule:nonzero;"/><rect x="49.639" y="4.974" width="0.917" height="0.915" style="fill:#6acbdc;fill-rule:nonzero;"/><rect x="47.592" y="9.688" width="0.917" height="0.915" style="fill:#6acbdc;fill-rule:nonzero;"/><rect x="47.593" y="4.061" width="0.917" height="0.915" style="fill:#6acbdc;fill-rule:nonzero;"/><rect x="47.588" y="0.072" width="0.917" height="0.915" style="fill:#c4bb98;fill-rule:nonzero;"/><rect x="48.506" y="0.988" width="0.917" height="0.915" style="fill:#c4bb98;fill-rule:nonzero;"/><path d="M65.463,17.982l-6.061,0l0,-14.351l2.384,0l0,12.219l3.677,0l0,2.132Z" style="fill:#c4bb98;fill-rule:nonzero;"/><path d="M74.975,7.034c0,-1.025 -0.534,-1.312 -1.315,-1.312l-1.253,0l0,4.613l1.253,0c0.781,0 1.315,-0.287 1.315,-1.312l0,-1.989Zm2.384,-0.369l0,2.727c0,2.173 -1.439,3.034 -3.616,3.034l-1.336,0l0,5.556l-2.383,0l0,-14.351l3.719,0c2.177,0 3.616,0.861 3.616,3.034Z" style="fill:#c4bb98;fill-rule:nonzero;"/><path d="M84.803,17.982l-6.06,0l0,-14.351l2.383,0l0,12.219l3.677,0l0,2.132Z" style="fill:#c4bb98;fill-rule:nonzero;"/><path d="M91.049,12.816l-1.007,-6.377l-1.007,6.377l2.014,0Zm0.308,1.968l-2.63,0l-0.513,3.198l-2.301,0l2.671,-14.351l2.999,0l2.712,14.351l-2.424,0l-0.514,-3.198Z" style="fill:#c4bb98;fill-rule:nonzero;"/><path d="M95.522,17.982l0,-14.351l2.383,0l3.02,8.877l0,-8.877l2.178,0l0,14.351l-2.261,0l-3.143,-9.329l0,9.329l-2.177,0Z" style="fill:#c4bb98;fill-rule:nonzero;"/><path d="M111.732,5.722l-2.404,0l0,12.26l-2.383,0l0,-12.26l-2.405,0l0,-2.091l7.192,0l0,2.091Z" style="fill:#c4bb98;fill-rule:nonzero;"/><path d="M117.546,8.756l0,-2.009c0,-0.902 -0.514,-1.23 -1.212,-1.23c-0.699,0 -1.212,0.328 -1.212,1.23l0,0.984c0,0.738 0.246,1.066 0.924,1.455l1.685,0.944c1.376,0.779 2.198,1.414 2.198,2.952l0,2.071c0,2.214 -1.376,2.993 -3.554,2.993l-0.041,0c-2.178,0 -3.554,-0.759 -3.554,-2.993l0,-2.502l2.342,0l0,2.174c0,0.881 0.513,1.271 1.232,1.271c0.719,0 1.233,-0.39 1.233,-1.271l0,-1.128c0,-0.738 -0.226,-1.107 -0.945,-1.497l-1.664,-0.943c-1.397,-0.799 -2.198,-1.456 -2.198,-2.952l0,-1.886c0,-2.133 1.561,-2.953 3.533,-2.953l0.041,0c1.973,0 3.534,0.82 3.534,2.953l0,2.337l-2.342,0Z" style="fill:#c4bb98;fill-rule:nonzero;"/><path d="M57.841,5.722l0,-2.091l-3.442,0l0,0.91l-0.918,0l0,-0.91l-1.865,0l0,1.343l0.923,0l0,0.916l-0.923,0l0,12.092l2.383,0l0,-6.13l3.205,0l0,-2.091l-3.205,0l0,-4.039l3.842,0Z" style="fill:#c4bb98;fill-rule:nonzero;"/><rect x="44.893" y="0.063" width="0.916" height="0.914" style="fill:#c4bb98;fill-rule:nonzero;"/><path d="M34.141,17.238c-0.923,-0.606 -0.794,-1.388 0.038,-2.003c-0.041,0.827 -0.044,1.518 -0.038,2.003Zm1.044,-5.223c0.076,-0.642 0.147,-1.111 0.261,-1.71c0.157,-0.097 0.319,-0.187 0.483,-0.271c-0.001,0.002 -0.002,0.003 -0.003,0.004c-0.088,0.19 -0.005,0.416 0.31,0.563c0.316,0.146 0.934,0.016 0.934,0.016c0,0 -0.297,-0.556 -0.613,-0.703c-0.082,-0.038 -0.158,-0.061 -0.228,-0.07c0.271,-0.12 0.546,-0.224 0.818,-0.314c-0.035,0.035 -0.061,0.078 -0.079,0.126c-0.072,0.197 0.031,0.415 0.358,0.534c0.327,0.118 0.932,-0.065 0.932,-0.065c0,0 -0.345,-0.529 -0.672,-0.648c-0.077,-0.028 -0.148,-0.043 -0.213,-0.048c0.634,-0.186 1.24,-0.299 1.741,-0.37l0,-0.267c-0.112,0 -0.427,0.008 -0.566,0.037c0.207,-0.205 0.344,-0.686 0.344,-0.686c-0.084,-0.001 -0.642,-0.003 -0.905,0.183c-0.258,0.182 -0.314,0.394 -0.231,0.56c-0.809,0.203 -1.324,0.342 -2.284,0.765c0.146,-0.679 0.277,-1.23 0.478,-1.846c0.108,-0.063 0.218,-0.123 0.328,-0.18c-0.066,0.194 0.038,0.408 0.361,0.525c0.327,0.119 0.931,-0.065 0.931,-0.065c0,0 -0.344,-0.528 -0.672,-0.647c-0.05,-0.018 -0.097,-0.03 -0.142,-0.039c0.263,-0.114 0.53,-0.213 0.795,-0.3l0.323,-0.099c0.328,-0.095 0.65,-0.171 0.957,-0.232c-0.035,0.035 -0.062,0.078 -0.079,0.126c-0.072,0.197 0.03,0.414 0.357,0.533c0.002,0.001 0.003,0.001 0.005,0.001l0,-0.933c0,-0.039 0.004,-0.074 0.005,-0.112c-0.895,0.067 -1.966,0.272 -2.942,0.793c0.225,-0.617 0.48,-1.198 0.767,-1.739c0.193,-0.111 0.391,-0.211 0.591,-0.303c-0.005,0.013 -0.01,0.027 -0.014,0.041c-0.054,0.202 0.067,0.411 0.403,0.5c0.337,0.09 0.923,-0.145 0.923,-0.145c0,0 -0.39,-0.497 -0.726,-0.586c-0.03,-0.008 -0.058,-0.014 -0.086,-0.019c0.462,-0.222 0.89,-0.299 1.317,-0.398c-0.031,0.037 -0.053,0.081 -0.066,0.129c-0.036,0.133 0.007,0.268 0.134,0.371c0.204,-0.417 0.504,-0.746 0.887,-0.991c-0.378,0.019 -0.792,0.061 -1.225,0.143c0.194,-0.283 0.251,-0.811 0.251,-0.811c0,0 -0.622,0.109 -0.86,0.362c-0.226,0.241 -0.231,0.469 -0.1,0.614c-0.332,0.094 -0.668,0.213 -0.999,0.363c0.811,-1.137 1.598,-1.938 2.374,-2.518c-0.026,0.134 0.028,0.296 0.193,0.461c0.246,0.246 0.872,0.334 0.872,0.334c0,0 -0.089,-0.624 -0.335,-0.87c-0.119,-0.119 -0.237,-0.18 -0.344,-0.195c0.213,-0.14 0.426,-0.265 0.638,-0.377c-0.1,0.169 -0.049,0.393 0.222,0.583c0.286,0.2 0.917,0.179 0.917,0.179c0,0 -0.196,-0.6 -0.481,-0.799c-0.115,-0.081 -0.223,-0.122 -0.318,-0.131c0.444,-0.206 0.887,-0.36 1.331,-0.484l0.024,-0.005l-0.001,0.648l0.916,0l0,-0.867c0.112,-0.023 0.225,-0.046 0.338,-0.068c0.055,-0.016 0.048,-0.088 -0.009,-0.092c-0.573,0.032 -1.111,0.11 -1.618,0.229c0.203,-0.269 0.31,-0.735 0.31,-0.735c0,0 -0.631,0.036 -0.897,0.261c-0.266,0.224 -0.287,0.464 -0.151,0.624c0.013,0.016 0.028,0.03 0.044,0.043c-3.475,1.133 -5.312,4.311 -6.282,7.621c0,0.004 -0.129,0.456 -0.128,0.458c-0.562,2.091 -0.794,4.199 -0.889,5.845c-2.02,1.279 -0.669,2.496 -0.046,2.928c0.192,0.132 0.321,0.224 0.321,0.224l0,-0.001l0,0l0.513,0c-0.042,-1.098 -0.042,-2.198 -0.007,-3.22c0.828,-0.384 1.894,-0.65 2.907,-0.785c0,0 0.005,-0.001 0.008,-0.001c0.047,-0.006 0.079,-0.04 0.073,-0.087c-0.005,-0.044 -0.041,-0.064 -0.084,-0.064c0,0 -0.012,0.001 -0.012,0.001c-0.827,0.021 -1.861,0.15 -2.879,0.581c0.029,-0.71 0.065,-1.149 0.132,-1.818c0.09,-0.056 0.181,-0.111 0.272,-0.163c-0.003,0.007 -0.007,0.013 -0.01,0.02c-0.089,0.189 -0.006,0.415 0.31,0.562c0.315,0.147 0.934,0.017 0.934,0.017c0,0 -0.298,-0.557 -0.613,-0.704c-0.106,-0.049 -0.202,-0.072 -0.286,-0.074c0.252,-0.128 0.506,-0.239 0.759,-0.337c-0.018,0.022 -0.033,0.046 -0.045,0.072c-0.089,0.19 -0.006,0.416 0.31,0.563c0.315,0.146 0.934,0.016 0.934,0.016c0,0 -0.298,-0.556 -0.613,-0.703c-0.09,-0.042 -0.172,-0.065 -0.247,-0.072c0.285,-0.099 0.564,-0.18 0.829,-0.248c-0.025,0.027 -0.045,0.058 -0.062,0.092c-0.088,0.19 -0.005,0.415 0.31,0.562c0.316,0.147 0.934,0.017 0.934,0.017c0,0 -0.297,-0.557 -0.613,-0.703c-0.062,-0.029 -0.12,-0.049 -0.175,-0.061c0.335,-0.073 0.638,-0.124 0.89,-0.159c-0.052,0.034 -0.092,0.082 -0.119,0.14c-0.089,0.19 -0.006,0.416 0.31,0.562c0.024,0.012 0.051,0.021 0.079,0.029l0,-0.913c-0.82,-0.024 -2.571,0.043 -4.029,0.89Z" style="fill:#c4bb98;fill-rule:nonzero;"/><path d="M44.787,11.523l0.924,0l0,0.922l-0.924,0l0,-0.922Zm0.001,-5.722l0.924,0l0,0.923l-0.924,0l0,-0.923Zm0,2.748l0,-0.91l0.921,0l0,-0.003l0.004,0l0,-0.912l0.912,0l0,-0.229c0,-0.248 -0.022,-0.478 -0.059,-0.694l-0.853,0l0,-0.922l0.53,0c-0.566,-0.985 -1.723,-1.425 -3.241,-1.425l-0.165,0c-0.982,0 -1.812,0.186 -2.43,0.582c0.917,-0.047 1.611,0.046 1.79,0.073c0.066,-0.175 0.262,-0.277 0.574,-0.209c0.34,0.076 0.751,0.554 0.751,0.554c0,0 -0.575,0.261 -0.915,0.186c-0.318,-0.07 -0.452,-0.252 -0.431,-0.442c-0.112,0 -0.362,0.004 -0.709,0.028c0.319,0.132 0.657,0.562 0.657,0.562c0,0 -0.587,0.236 -0.923,0.146c-0.336,-0.09 -0.457,-0.298 -0.403,-0.5c0.016,-0.06 0.046,-0.112 0.088,-0.154c-0.28,0.033 -0.592,0.077 -0.922,0.139c0.007,0.002 0.014,0.004 0.022,0.005c0.336,0.09 0.726,0.587 0.726,0.587c0,0 -0.586,0.235 -0.923,0.145c-0.115,-0.03 -0.203,-0.076 -0.269,-0.129c-0.184,0.377 -0.288,0.828 -0.301,1.356c1.143,-0.085 1.998,0.057 1.998,0.057c0.022,0.001 0.039,0.019 0.039,0.041c0,0.022 -0.018,0.04 -0.04,0.041c0,0 -0.175,-0.002 -0.471,0.015c0.032,0.008 0.065,0.017 0.099,0.03c0.327,0.119 0.672,0.647 0.672,0.647c0,0 -0.605,0.184 -0.932,0.065c-0.327,-0.119 -0.43,-0.337 -0.358,-0.533c0.029,-0.08 0.083,-0.143 0.157,-0.183c-0.284,0.024 -0.627,0.063 -1.006,0.124c0.03,0.008 0.06,0.017 0.092,0.028c0.327,0.119 0.672,0.647 0.672,0.647c0,0 -0.599,0.182 -0.927,0.066l0,1.364c0.717,0.003 1.276,0.077 1.276,0.077c0.019,0.003 0.034,0.019 0.034,0.04c0,0.02 -0.015,0.037 -0.035,0.039c0,0 -0.171,0.002 -0.461,0.023c0.006,0.002 0.011,0.004 0.017,0.006c0.327,0.119 0.672,0.647 0.672,0.647c0,0 -0.604,0.184 -0.932,0.065c-0.327,-0.119 -0.429,-0.337 -0.357,-0.533c0.019,-0.053 0.049,-0.099 0.089,-0.136c-0.095,0.011 -0.198,0.025 -0.303,0.039l0,2.066c0.292,0.008 0.468,0.028 0.468,0.028c0.019,0.003 0.033,0.019 0.033,0.039c0,0.02 -0.013,0.036 -0.031,0.04c0,0 -0.145,0.006 -0.393,0.032c0.052,0.013 0.106,0.032 0.164,0.059c0.316,0.147 0.613,0.703 0.613,0.703c0,0 -0.525,0.11 -0.854,0.012l0,3.085c0,2.239 1.441,3.04 3.623,3.04l0.165,0c2.182,0 3.623,-0.821 3.623,-3.04l0,-0.736l-0.913,0l0,-0.922l0.913,0l0,-1.942l-0.914,0l0,-0.919l-2.874,0l0,2.013l1.4,0l0,2.136c0,1.028 -0.536,1.315 -1.318,1.315c-0.782,0 -1.317,-0.287 -1.317,-1.315l0,-7.888c0,-1.027 0.535,-1.315 1.317,-1.315c0.782,0 1.318,0.288 1.318,1.315l0,1.684l0.551,0Z" style="fill:#6acbdc;fill-rule:nonzero;"/><path d="M46.624,6.723l0.918,0l0,0.912l-0.918,0" style="fill:#6acbdc;fill-rule:nonzero;"/></svg>