<?xml version="1.0" encoding="UTF-8"?>
<svg id="finals" xmlns="http://www.w3.org/2000/svg" version="1.1" viewBox="0 0 323.8 198.1">
  <defs>
    <style>
      .cls-1 {
        fill: #ceb888;
      }

      .cls-1, .cls-2, .cls-3, .cls-4 {
        stroke-width: 0px;
      }

      .cls-2 {
        fill: #782f40;
      }

      .cls-3 {
        fill: #fff;
      }

      .cls-4 {
        fill: #231f20;
      }
    </style>
  </defs>
  <g>
    <path class="cls-2" d="M281.5,87.8V3.4h-21.5v79.1c-2.3.3-8.8.4-13.1.4s-11.8-.1-13.3-.4V3.4h-28s6.7,4.7,6.7,11.9v85.3l1.3.4c.4.1,11.8,3.2,33.3,3.2s37.3-3.9,37.5-4l3.7-.7s-6.6-1.6-6.6-11.6h0ZM272.8,94.1s-6.6,1.9-26,1.9-26.3-1.9-26.3-1.9V11.6h4.6v78.4s10.2,1.4,21.7,1.4c16.5,0,21.4-1.4,21.4-1.4V11.6h4.6v82.6Z"/>
    <g>
      <path class="cls-2" d="M80.6,0C58.1,0,40.3,4.2,40.2,4.2l-3.6.9,3,2.2c3.3,2.4,4.6,4.9,4.7,8.7,0,0-.1,73,0,76.9,0,3.6-1.4,5.7-4.7,8.3l-4.2,3h39.2l-4.2-3s-4.6-3.9-4.4-8.3v-26h41.3c1.4.1,3.6,1,3.6,1l2.7,1.7v-26.7l-2.6,1.6s-1.4.9-3.4.9h-41.6v-23.5s8.5-1.2,13.1-1.2,16.8,1.3,22.5,3.4c6.6,2.6,12.1,7.5,12.1,7.5V3.6l-1.4-.3c-.1,0-13.6-3.3-31.6-3.3h0ZM106.8,17.5s-3.7-1.9-9.9-2.9c-6.3-1.2-8.9-1.4-17.6-1.6-12.1-.3-21.5,1.4-21.5,1.4v39h47.8v5h-47.8v38.2h-5.2V10.2c.1,0,10.3-2.3,26.5-2.3s17.6.6,27.7,2.3v7.3Z"/>
      <path class="cls-1" d="M52.7,10.2v86.5c-.1,0,5,0,5,0v-38.2h47.8v-5h-47.8V14.5s9.5-1.7,21.5-1.4c8.8.1,11.3.4,17.6,1.6,6.2,1,9.9,2.9,9.9,2.9v-7.3c-10.1-1.7-18.9-2.3-27.7-2.3-16.2,0-26.4,2.3-26.4,2.3Z"/>
    </g>
    <path class="cls-1" d="M268.2,90s-4.9,1.4-21.4,1.4-21.7-1.4-21.7-1.4V11.6h-4.6v82.6s11,1.9,26.3,1.9,26-1.9,26-1.9V11.6h-4.6v78.4Z"/>
    <g>
      <path class="cls-2" d="M197.7,88.5v-23.2c0-4.9-3.3-6.3-3.3-6.3l-44.6-27.6v-9.8c2.7-.4,5.3-.9,16.6-.4,7.3.3,12.5,1.2,17.2,2.7,7.6,2.4,10.5,4.7,10.5,4.7l3.6,3V3.5c-.1,0-1.9-.3-1.9-.3-.6-.1-16.5-3.2-33.4-3.2s-36.9,3.9-37.6,4l-4.3,1,3.6,2.7c2.9,2.2,4.2,4.5,4.3,7.9v20c-.1,6.3,4.6,8.9,4.6,8.9l43.2,27v11.1c-2.6.4-6.2.9-17.4.4-7.5-.3-11.6-1.3-16.5-2.7-7.9-2.1-14.1-7.8-14.1-7.8v28.1l1.7.4c.7.1,15.8,3.2,32.9,3.2s37.6-3.9,38.3-4l4.5-1-3.7-2.7c-2.9-2.1-4-4.4-4.2-7.9h0ZM189.3,94s-9.8,2.1-25,2.1-18.2-.6-27.7-2.1v-6.9s3.7,1.7,9.5,2.7c6,1,9.8,1.3,17.9,1.4,11.5.3,20.4-1.3,20.4-1.3v-18.8c0-4.2-4.2-6.5-4.2-6.5l-39.6-24.8s-4-2.4-4-7V10.2s8.9-2.2,24.1-2.2,18.8.6,28.4,2.2v6.9s-3.6-1.7-9.3-2.7c-6-1.2-10.6-1.3-18.9-1.4-11.3-.3-19.5,1.3-19.5,1.3v17.1c0,3.9,3.9,6,3.9,6l40.3,25s3.7,2,3.7,6.5v25.2h0Z"/>
      <path class="cls-1" d="M185.6,62.3l-40.3-25s-3.9-2.2-3.9-6V14.2s8.2-1.6,19.5-1.3c8.3.1,12.9.3,18.9,1.4,5.7,1,9.3,2.7,9.3,2.7v-6.9c-9.6-1.6-20.1-2.2-28.4-2.2-15.2,0-24.1,2.2-24.1,2.2v22.7c0,4.6,4,7,4,7l39.6,24.8s4.2,2.3,4.2,6.5v18.8s-8.9,1.6-20.4,1.3c-8.2-.1-11.9-.4-17.9-1.4-5.7-1-9.5-2.7-9.5-2.7v6.9c9.5,1.6,19.2,2.1,27.7,2.1,15.2,0,25-2.1,25-2.1v-25.2c0-4.4-3.7-6.5-3.7-6.5h0Z"/>
    </g>
  </g>
  <g>
    <g>
      <path class="cls-4" d="M7.9,167.3H0v-41.4h18.5v6.8H7.9v11.3h9.8v6.8H7.9v16.6h0Z"/>
      <path class="cls-4" d="M24,167.3v-41.4h7.9v34.5h11v6.9h-19Z"/>
      <path class="cls-4" d="M75.7,146.5c0,3.3-.3,6.2-.9,8.9-.6,2.6-1.5,4.9-2.7,6.7s-2.7,3.3-4.6,4.2-4,1.5-6.5,1.5-4.7-.5-6.5-1.5c-1.9-1-3.4-2.4-4.6-4.3-1.2-1.9-2.1-4.1-2.7-6.7-.6-2.6-.9-5.6-.9-8.9,0-4.6.6-8.5,1.7-11.7,1.1-3.1,2.8-5.5,4.9-7.1s4.9-2.4,8.1-2.4,6.1.9,8.2,2.6,3.8,4.2,4.8,7.3c1.1,3.2,1.6,7,1.6,11.4h0ZM54.5,146.5c0,3.2.2,5.8.7,7.9.5,2.1,1.2,3.7,2.2,4.8,1,1.1,2.1,1.6,3.6,1.6s2.6-.5,3.6-1.6,1.7-2.6,2.1-4.7c.5-2.1.7-4.8.7-8,0-4.9-.5-8.5-1.6-10.8-1.1-2.4-2.7-3.6-4.8-3.6s-2.6.5-3.6,1.6-1.7,2.7-2.2,4.8c-.5,2.1-.7,4.8-.7,7.9h0Z"/>
      <path class="cls-4" d="M91.5,125.9c3.1,0,5.6.4,7.6,1.3s3.5,2.2,4.5,4c1,1.8,1.5,4,1.5,6.7s-.2,3.2-.6,4.6c-.4,1.4-1.1,2.6-1.9,3.7-.9,1.1-2,2-3.4,2.8l8.5,18.2h-8.7l-6.8-16.2h-2.4v16.2h-7.9v-41.4h9.6,0ZM91.4,132.6h-1.6v12.2h1.8c1.8,0,3.1-.5,4-1.6.9-1.1,1.4-2.7,1.4-4.9s-.5-3.4-1.4-4.3c-.9-.9-2.3-1.4-4.2-1.4Z"/>
      <path class="cls-4" d="M111.6,167.3v-41.4h7.9v41.4h-7.9Z"/>
      <path class="cls-4" d="M153.1,145.8c0,4.6-.6,8.5-1.9,11.7s-3.1,5.6-5.6,7.3c-2.4,1.6-5.4,2.5-9,2.5h-9.7v-41.4h10.3c3.4,0,6.3.8,8.6,2.3s4.2,3.8,5.4,6.7c1.2,3,1.8,6.6,1.8,10.9h0ZM144.9,146.2c0-3.1-.3-5.6-.9-7.6-.6-2-1.5-3.4-2.6-4.4-1.2-.9-2.6-1.4-4.3-1.4h-2.3v27.5h1.7c2.9,0,5-1.2,6.3-3.5,1.4-2.3,2-5.9,2-10.6h0Z"/>
      <path class="cls-4" d="M177.6,167.3l-2.1-10h-9.2l-2.1,10h-8.5l10-41.4h10.3l10.2,41.4h-8.5ZM174.3,150.4l-2.2-10.9c-.1-.9-.3-1.8-.4-2.7-.1-.9-.3-1.7-.4-2.5-.1-.8-.2-1.6-.3-2.2,0,.7-.1,1.4-.2,2.2s-.2,1.6-.4,2.5c-.1.9-.3,1.8-.5,2.6l-2.2,11.1h6.8Z"/>
      <path class="cls-4" d="M220.1,155.2c0,2.5-.5,4.7-1.5,6.6-1,1.9-2.4,3.4-4.2,4.5-1.8,1.1-4,1.6-6.4,1.6s-2.3,0-3.3-.2-2.1-.4-3.2-.7-2.1-.8-3.1-1.3v-8.1c1.5,1,3.1,1.7,4.7,2.2,1.6.5,3.1.8,4.5.8s1.9-.2,2.5-.6c.7-.4,1.2-.9,1.5-1.6.3-.7.5-1.4.5-2.3s-.1-1.7-.4-2.4-.8-1.4-1.6-2.1c-.8-.7-2-1.5-3.5-2.4-1.2-.7-2.3-1.4-3.3-2.2-1-.8-1.8-1.6-2.5-2.5s-1.2-2-1.6-3.2c-.4-1.2-.5-2.6-.5-4.3,0-2.3.4-4.4,1.4-6.1s2.3-3.1,4-4.1c1.8-1,3.9-1.4,6.4-1.4,1.7,0,3.3.2,4.9.7s3.2,1.1,4.7,1.9l-2.2,7c-1.3-.8-2.6-1.4-3.8-1.8s-2.3-.6-3.3-.6-1.7.2-2.3.5-1.1.8-1.4,1.4c-.3.6-.5,1.3-.5,2.1s.1,1.8.5,2.5c.3.7.9,1.3,1.7,2,.8.6,2,1.4,3.6,2.3,1.7,1,3.1,2.1,4.3,3.2s2,2.4,2.6,3.8c.6,1.4.9,3,.9,4.8h0Z"/>
      <path class="cls-4" d="M239.1,167.3h-7.8v-34.5h-7.7v-6.9h23.2v6.9h-7.6v34.5h0Z"/>
      <path class="cls-4" d="M268.8,167.3l-2.1-10h-9.2l-2.1,10h-8.5l10-41.4h10.3l10.2,41.4h-8.5ZM265.4,150.4l-2.2-10.9c-.1-.9-.3-1.8-.4-2.7-.1-.9-.3-1.7-.4-2.5-.1-.8-.2-1.6-.3-2.2,0,.7-.1,1.4-.2,2.2s-.2,1.6-.4,2.5c-.1.9-.3,1.8-.5,2.6l-2.2,11.1h6.8Z"/>
      <path class="cls-4" d="M292.7,167.3h-7.8v-34.5h-7.7v-6.9h23.2v6.9h-7.6v34.5h0Z"/>
      <path class="cls-4" d="M323.5,167.3h-18.6v-41.4h18.6v6.8h-10.6v9.7h9.9v6.8h-9.9v11.2h10.6v6.9h0Z"/>
    </g>
    <g>
      <path class="cls-4" d="M14.8,179.1v12.1c0,1.3-.3,2.5-.8,3.5s-1.4,1.8-2.5,2.4c-1.1.6-2.5.9-4.2.9-2.4,0-4.2-.6-5.5-1.9-1.2-1.2-1.9-2.9-1.9-5v-12h3.2v11.7c0,1.6.4,2.7,1.1,3.4s1.8,1.1,3.2,1.1,1.8-.2,2.4-.5,1.1-.9,1.4-1.5.4-1.5.4-2.5v-11.7h3.1,0Z"/>
      <path class="cls-4" d="M54.9,197.7h-3.9l-9-14.8h-.1c0,.5,0,1.1,0,1.6s0,1.1,0,1.7c0,.6,0,1.2,0,1.8v9.6h-2.9v-18.6h3.9l9,14.7h0c0-.4,0-1,0-1.5s0-1.1,0-1.7,0-1.2,0-1.7v-9.7h2.9v18.6h0Z"/>
      <path class="cls-4" d="M79.6,197.7v-18.6h3.1v18.6h-3.1Z"/>
      <path class="cls-4" d="M121.2,179.1l-6.5,18.6h-3.4l-6.5-18.6h3.2l3.9,11.6c.1.3.2.7.4,1.2s.3,1,.4,1.5c.1.5.2.9.3,1.3,0-.4.2-.8.3-1.3s.2-1,.4-1.5.3-.9.4-1.2l3.9-11.6h3.2Z"/>
      <path class="cls-4" d="M153.9,197.7h-10.6v-18.6h10.6v2.6h-7.4v5h6.9v2.6h-6.9v5.7h7.4v2.6Z"/>
      <path class="cls-4" d="M182.9,179.1c1.6,0,3,.2,4,.6s1.8,1,2.4,1.8c.5.8.8,1.8.8,3s-.2,1.7-.5,2.3-.8,1.2-1.3,1.6-1.1.8-1.8,1l5.3,8.2h-3.5l-4.5-7.4h-2.9v7.4h-3.1v-18.6h5.2,0ZM182.7,181.7h-1.9v6h2c1.4,0,2.4-.3,3-.8s1-1.3,1-2.3-.3-1.8-1-2.2c-.7-.4-1.7-.7-3.1-.7h0Z"/>
      <path class="cls-4" d="M224.9,192.6c0,1.1-.3,2.1-.8,2.9s-1.3,1.4-2.3,1.8-2.2.6-3.6.6-1.3,0-2-.1-1.2-.2-1.8-.3-1-.3-1.5-.6v-2.9c.8.3,1.6.6,2.6.9s1.9.4,2.9.4,1.4-.1,1.9-.3.9-.5,1.1-.9c.2-.4.4-.8.4-1.3s-.1-1-.5-1.4c-.3-.4-.7-.7-1.3-1s-1.3-.7-2.2-1c-.6-.2-1.2-.5-1.7-.8-.5-.3-1-.7-1.5-1.1-.4-.4-.8-.9-1-1.5s-.4-1.3-.4-2.1.2-2,.8-2.7c.5-.8,1.2-1.3,2.1-1.7s2-.6,3.2-.6,1.9.1,2.8.3c.9.2,1.7.5,2.5.9l-1,2.5c-.8-.3-1.5-.6-2.2-.8s-1.4-.3-2.2-.3-1.2.1-1.6.3c-.4.2-.8.5-1,.8-.2.4-.3.8-.3,1.2s.1,1,.4,1.3.7.7,1.2,1,1.3.6,2.1,1c1,.4,1.9.9,2.6,1.4.7.5,1.3,1,1.6,1.7s.6,1.5.6,2.4h0Z"/>
      <path class="cls-4" d="M248.2,197.7v-18.6h3.1v18.6h-3.1Z"/>
      <path class="cls-4" d="M282.5,197.7h-3.1v-16h-5.4v-2.7h14v2.7h-5.4v16Z"/>
      <path class="cls-4" d="M315.8,187.5l4.4-8.4h3.4l-6.2,11.4v7.2h-3.1v-7.1l-6.2-11.5h3.4l4.3,8.4Z"/>
    </g>
  </g>
  <g>
    <path class="cls-4" d="M281.8,87.8V3.4h-21.5v79.1c-2.3.3-8.8.4-13.1.4s-11.8-.1-13.3-.4V3.4h-28s6.7,4.7,6.7,11.9v85.3l1.3.4c.4.1,11.8,3.2,33.3,3.2s37.3-3.9,37.5-4l3.7-.7s-6.6-1.6-6.6-11.6h0ZM273,94.1s-6.6,1.9-26,1.9-26.3-1.9-26.3-1.9V11.6h4.6v78.4s10.2,1.4,21.7,1.4c16.5,0,21.4-1.4,21.4-1.4V11.6h4.6v82.6Z"/>
    <g>
      <path class="cls-4" d="M80.9,0C58.4,0,40.6,4.2,40.4,4.2l-3.6.9,3,2.2c3.3,2.4,4.6,4.9,4.7,8.7,0,0-.1,73,0,76.9,0,3.6-1.4,5.7-4.7,8.3l-4.2,3h39.2l-4.2-3s-4.6-3.9-4.4-8.3v-26h41.3c1.4.1,3.6,1,3.6,1l2.7,1.7v-26.7l-2.6,1.6s-1.4.9-3.4.9h-41.6v-23.5s8.5-1.2,13.1-1.2,16.8,1.3,22.5,3.4c6.6,2.6,12.1,7.5,12.1,7.5V3.6l-1.4-.3c-.1,0-13.6-3.3-31.6-3.3h0ZM107,17.5s-3.7-1.9-9.9-2.9c-6.3-1.2-8.9-1.4-17.6-1.6-12.1-.3-21.5,1.4-21.5,1.4v39h47.8v5h-47.8v38.2h-5.2V10.2c.1,0,10.3-2.3,26.5-2.3s17.6.6,27.7,2.3v7.3Z"/>
      <path class="cls-3" d="M52.9,10.2v86.5c-.1,0,5,0,5,0v-38.2h47.8v-5h-47.8V14.5s9.5-1.7,21.5-1.4c8.8.1,11.3.4,17.6,1.6,6.2,1,9.9,2.9,9.9,2.9v-7.3c-10.1-1.7-18.9-2.3-27.7-2.3-16.2,0-26.4,2.3-26.4,2.3Z"/>
    </g>
    <path class="cls-3" d="M268.4,90s-4.9,1.4-21.4,1.4-21.7-1.4-21.7-1.4V11.6h-4.6v82.6s11,1.9,26.3,1.9,26-1.9,26-1.9V11.6h-4.6v78.4Z"/>
    <g>
      <path class="cls-4" d="M197.9,88.5v-23.2c0-4.9-3.3-6.3-3.3-6.3l-44.6-27.6v-9.8c2.7-.4,5.3-.9,16.6-.4,7.3.3,12.5,1.2,17.2,2.7,7.6,2.4,10.5,4.7,10.5,4.7l3.6,3V3.5c-.1,0-1.9-.3-1.9-.3-.6-.1-16.5-3.2-33.4-3.2s-36.9,3.9-37.6,4l-4.3,1,3.6,2.7c2.9,2.2,4.2,4.5,4.3,7.9v20c-.1,6.3,4.6,8.9,4.6,8.9l43.2,27v11.1c-2.6.4-6.2.9-17.4.4-7.5-.3-11.6-1.3-16.5-2.7-7.9-2.1-14.1-7.8-14.1-7.8v28.1l1.7.4c.7.1,15.8,3.2,32.9,3.2s37.6-3.9,38.3-4l4.5-1-3.7-2.7c-2.9-2.1-4-4.4-4.2-7.9h0ZM189.6,94s-9.8,2.1-25,2.1-18.2-.6-27.7-2.1v-6.9s3.7,1.7,9.5,2.7c6,1,9.8,1.3,17.9,1.4,11.5.3,20.4-1.3,20.4-1.3v-18.8c0-4.2-4.2-6.5-4.2-6.5l-39.6-24.8s-4-2.4-4-7V10.2s8.9-2.2,24.1-2.2,18.8.6,28.4,2.2v6.9s-3.6-1.7-9.3-2.7c-6-1.2-10.6-1.3-18.9-1.4-11.3-.3-19.5,1.3-19.5,1.3v17.1c0,3.9,3.9,6,3.9,6l40.3,25s3.7,2,3.7,6.5v25.2h0Z"/>
      <path class="cls-3" d="M185.8,62.3l-40.3-25s-3.9-2.2-3.9-6V14.2s8.2-1.6,19.5-1.3c8.3.1,12.9.3,18.9,1.4,5.7,1,9.3,2.7,9.3,2.7v-6.9c-9.6-1.6-20.1-2.2-28.4-2.2-15.2,0-24.1,2.2-24.1,2.2v22.7c0,4.6,4,7,4,7l39.6,24.8s4.2,2.3,4.2,6.5v18.8s-8.9,1.6-20.4,1.3c-8.2-.1-11.9-.4-17.9-1.4-5.7-1-9.5-2.7-9.5-2.7v6.9c9.5,1.6,19.2,2.1,27.7,2.1,15.2,0,25-2.1,25-2.1v-25.2c0-4.4-3.7-6.5-3.7-6.5h0Z"/>
    </g>
  </g>
  <g>
    <g>
      <path class="cls-4" d="M8.2,167.3H.2v-41.4h18.5v6.8h-10.5v11.3h9.8v6.8h-9.8v16.6h0Z"/>
      <path class="cls-4" d="M24.2,167.3v-41.4h7.9v34.5h11v6.9h-19,0Z"/>
      <path class="cls-4" d="M75.9,146.5c0,3.3-.3,6.2-.9,8.9-.6,2.6-1.5,4.9-2.7,6.7s-2.7,3.3-4.6,4.2-4,1.5-6.5,1.5-4.7-.5-6.5-1.5c-1.9-1-3.4-2.4-4.6-4.3-1.2-1.9-2.1-4.1-2.7-6.7-.6-2.6-.9-5.6-.9-8.9,0-4.6.6-8.5,1.7-11.7,1.1-3.1,2.8-5.5,4.9-7.1s4.9-2.4,8.1-2.4,6.1.9,8.2,2.6,3.8,4.2,4.8,7.3c1.1,3.2,1.6,7,1.6,11.4h0ZM54.8,146.5c0,3.2.2,5.8.7,7.9.5,2.1,1.2,3.7,2.2,4.8,1,1.1,2.1,1.6,3.6,1.6s2.6-.5,3.6-1.6,1.7-2.6,2.1-4.7c.5-2.1.7-4.8.7-8,0-4.9-.5-8.5-1.6-10.8-1.1-2.4-2.7-3.6-4.8-3.6s-2.6.5-3.6,1.6-1.7,2.7-2.2,4.8c-.5,2.1-.7,4.8-.7,7.9h0Z"/>
      <path class="cls-4" d="M91.7,125.9c3.1,0,5.6.4,7.6,1.3s3.5,2.2,4.5,4c1,1.8,1.5,4,1.5,6.7s-.2,3.2-.6,4.6c-.4,1.4-1.1,2.6-1.9,3.7-.9,1.1-2,2-3.4,2.8l8.5,18.2h-8.7l-6.8-16.2h-2.4v16.2h-7.9v-41.4h9.6,0ZM91.7,132.6h-1.6v12.2h1.8c1.8,0,3.1-.5,4-1.6.9-1.1,1.4-2.7,1.4-4.9s-.5-3.4-1.4-4.3c-.9-.9-2.3-1.4-4.2-1.4Z"/>
      <path class="cls-4" d="M111.8,167.3v-41.4h7.9v41.4h-7.9Z"/>
      <path class="cls-4" d="M153.4,145.8c0,4.6-.6,8.5-1.9,11.7s-3.1,5.6-5.6,7.3c-2.4,1.6-5.4,2.5-9,2.5h-9.7v-41.4h10.3c3.4,0,6.3.8,8.6,2.3s4.2,3.8,5.4,6.7c1.2,3,1.8,6.6,1.8,10.9h0ZM145.2,146.2c0-3.1-.3-5.6-.9-7.6-.6-2-1.5-3.4-2.6-4.4-1.2-.9-2.6-1.4-4.3-1.4h-2.3v27.5h1.7c2.9,0,5-1.2,6.3-3.5,1.4-2.3,2-5.9,2-10.6h0Z"/>
      <path class="cls-4" d="M177.9,167.3l-2.1-10h-9.2l-2.1,10h-8.5l10-41.4h10.3l10.2,41.4h-8.5ZM174.5,150.4l-2.2-10.9c-.1-.9-.3-1.8-.4-2.7-.1-.9-.3-1.7-.4-2.5-.1-.8-.2-1.6-.3-2.2,0,.7-.1,1.4-.2,2.2s-.2,1.6-.4,2.5c-.1.9-.3,1.8-.5,2.6l-2.2,11.1h6.8Z"/>
      <path class="cls-4" d="M220.4,155.2c0,2.5-.5,4.7-1.5,6.6-1,1.9-2.4,3.4-4.2,4.5-1.8,1.1-4,1.6-6.4,1.6s-2.3,0-3.3-.2-2.1-.4-3.2-.7-2.1-.8-3.1-1.3v-8.1c1.5,1,3.1,1.7,4.7,2.2,1.6.5,3.1.8,4.5.8s1.9-.2,2.5-.6c.7-.4,1.2-.9,1.5-1.6.3-.7.5-1.4.5-2.3s-.1-1.7-.4-2.4-.8-1.4-1.6-2.1c-.8-.7-2-1.5-3.5-2.4-1.2-.7-2.3-1.4-3.3-2.2-1-.8-1.8-1.6-2.5-2.5s-1.2-2-1.6-3.2c-.4-1.2-.5-2.6-.5-4.3,0-2.3.4-4.4,1.4-6.1s2.3-3.1,4-4.1c1.8-1,3.9-1.4,6.4-1.4,1.7,0,3.3.2,4.9.7s3.2,1.1,4.7,1.9l-2.2,7c-1.3-.8-2.6-1.4-3.8-1.8s-2.3-.6-3.3-.6-1.7.2-2.3.5-1.1.8-1.4,1.4c-.3.6-.5,1.3-.5,2.1s.1,1.8.5,2.5c.3.7.9,1.3,1.7,2,.8.6,2,1.4,3.6,2.3,1.7,1,3.1,2.1,4.3,3.2s2,2.4,2.6,3.8c.6,1.4.9,3,.9,4.8h0Z"/>
      <path class="cls-4" d="M239.3,167.3h-7.8v-34.5h-7.7v-6.9h23.2v6.9h-7.6v34.5h0Z"/>
      <path class="cls-4" d="M269,167.3l-2.1-10h-9.2l-2.1,10h-8.5l10-41.4h10.3l10.2,41.4h-8.5ZM265.6,150.4l-2.2-10.9c-.1-.9-.3-1.8-.4-2.7-.1-.9-.3-1.7-.4-2.5-.1-.8-.2-1.6-.3-2.2,0,.7-.1,1.4-.2,2.2s-.2,1.6-.4,2.5c-.1.9-.3,1.8-.5,2.6l-2.2,11.1h6.8Z"/>
      <path class="cls-4" d="M292.9,167.3h-7.8v-34.5h-7.7v-6.9h23.2v6.9h-7.6v34.5h0Z"/>
      <path class="cls-4" d="M323.8,167.3h-18.6v-41.4h18.6v6.8h-10.6v9.7h9.9v6.8h-9.9v11.2h10.6v6.9h0Z"/>
    </g>
    <g>
      <path class="cls-4" d="M15.1,179.1v12.1c0,1.3-.3,2.5-.8,3.5s-1.4,1.8-2.5,2.4c-1.1.6-2.5.9-4.2.9-2.4,0-4.2-.6-5.5-1.9-1.2-1.2-1.9-2.9-1.9-5v-12h3.2v11.7c0,1.6.4,2.7,1.1,3.4s1.8,1.1,3.2,1.1,1.8-.2,2.4-.5,1.1-.9,1.4-1.5.4-1.5.4-2.5v-11.7h3.1,0Z"/>
      <path class="cls-4" d="M55.2,197.7h-3.9l-9-14.8h-.1c0,.5,0,1.1,0,1.6s0,1.1,0,1.7c0,.6,0,1.2,0,1.8v9.6h-2.9v-18.6h3.9l9,14.7h0c0-.4,0-1,0-1.5s0-1.1,0-1.7,0-1.2,0-1.7v-9.7h2.9v18.6h0Z"/>
      <path class="cls-4" d="M79.8,197.7v-18.6h3.1v18.6h-3.1Z"/>
      <path class="cls-4" d="M121.4,179.1l-6.5,18.6h-3.4l-6.5-18.6h3.2l3.9,11.6c.1.3.2.7.4,1.2s.3,1,.4,1.5c.1.5.2.9.3,1.3,0-.4.2-.8.3-1.3s.2-1,.4-1.5.3-.9.4-1.2l3.9-11.6h3.2Z"/>
      <path class="cls-4" d="M154.2,197.7h-10.6v-18.6h10.6v2.6h-7.4v5h6.9v2.6h-6.9v5.7h7.4v2.6Z"/>
      <path class="cls-4" d="M183.2,179.1c1.6,0,3,.2,4,.6s1.8,1,2.4,1.8c.5.8.8,1.8.8,3s-.2,1.7-.5,2.3-.8,1.2-1.3,1.6-1.1.8-1.8,1l5.3,8.2h-3.5l-4.5-7.4h-2.9v7.4h-3.1v-18.6h5.2,0ZM183,181.7h-1.9v6h2c1.4,0,2.4-.3,3-.8s1-1.3,1-2.3-.3-1.8-1-2.2c-.7-.4-1.7-.7-3.1-.7h0Z"/>
      <path class="cls-4" d="M225.1,192.6c0,1.1-.3,2.1-.8,2.9s-1.3,1.4-2.3,1.8-2.2.6-3.6.6-1.3,0-2-.1-1.2-.2-1.8-.3-1-.3-1.5-.6v-2.9c.8.3,1.6.6,2.6.9s1.9.4,2.9.4,1.4-.1,1.9-.3.9-.5,1.1-.9c.2-.4.4-.8.4-1.3s-.1-1-.5-1.4c-.3-.4-.7-.7-1.3-1s-1.3-.7-2.2-1c-.6-.2-1.2-.5-1.7-.8-.5-.3-1-.7-1.5-1.1-.4-.4-.8-.9-1-1.5s-.4-1.3-.4-2.1.2-2,.8-2.7c.5-.8,1.2-1.3,2.1-1.7s2-.6,3.2-.6,1.9.1,2.8.3c.9.2,1.7.5,2.5.9l-1,2.5c-.8-.3-1.5-.6-2.2-.8s-1.4-.3-2.2-.3-1.2.1-1.6.3c-.4.2-.8.5-1,.8-.2.4-.3.8-.3,1.2s.1,1,.4,1.3.7.7,1.2,1,1.3.6,2.1,1c1,.4,1.9.9,2.6,1.4.7.5,1.3,1,1.6,1.7s.6,1.5.6,2.4h0Z"/>
      <path class="cls-4" d="M248.5,197.7v-18.6h3.1v18.6h-3.1Z"/>
      <path class="cls-4" d="M282.7,197.7h-3.1v-16h-5.4v-2.7h14v2.7h-5.4v16Z"/>
      <path class="cls-4" d="M316.1,187.5l4.4-8.4h3.4l-6.2,11.4v7.2h-3.1v-7.1l-6.2-11.5h3.4l4.3,8.4Z"/>
    </g>
  </g>
</svg>