<?xml version="1.0" encoding="utf-8"?>
<!-- Generator: Adobe Illustrator 23.0.0, SVG Export Plug-In . SVG Version: 6.00 Build 0)  -->
<svg version="1.1" id="Layer_1" xmlns:serif="http://www.serif.com/"
	 xmlns="http://www.w3.org/2000/svg" xmlns:xlink="http://www.w3.org/1999/xlink" x="0px" y="0px" viewBox="0 0 612 792"
	 style="enable-background:new 0 0 612 792;" xml:space="preserve">
<style type="text/css">
	.st0{fill-rule:evenodd;clip-rule:evenodd;fill:#E94129;}
	.st1{fill-rule:evenodd;clip-rule:evenodd;fill:#221C4F;}
</style>
<path id="Layer-1" serif:id="Layer 1" class="st0" d="M575,380.3l24.8,24.1l-29.1,29.9l29.9,29.1l-24.2,24.8l-29.9-29.1l-29.3,30
	L492.4,465l29.3-30.1l-29.9-29.1l24.1-24.8l29.9,29.1L575,380.3L575,380.3z"/>
<path id="Layer-2" serif:id="Layer 2" class="st1" d="M55.2,483.6H16v-97.8h36.4c17.4,0,29.1,6.7,29.1,25.4c0,8.8-2.9,16-10.8,20
	v0.3c14,1.8,20,11.3,20,24.9C90.6,476.9,73.1,483.6,55.2,483.6z M44.7,464.2c7.5,0,20.3,0.4,20.3-10.4c0-11.8-12.6-10.6-20.9-10.6
	h-2.6v21C41.4,464.2,44.7,464.2,44.7,464.2z M43.2,405.3h-1.8v18.9h2.9c6.8,0,13.8-1.2,13.8-9.5C58,405.8,50.1,405.3,43.2,405.3z"/>
<rect id="Layer-3" x="103.9" y="385.8" serif:id="Layer 3" class="st1" width="25.5" height="97.8">
</rect>
<path id="Layer-4" serif:id="Layer 4" class="st0" d="M249.3,432.9c0,31.7-22.7,54-54.2,54c-31.4,0-54.1-22.3-54.1-54
	c0-29.6,26-50.3,54.1-50.3C223.4,382.6,249.3,403.3,249.3,432.9z M167.5,433c0,16.9,12.5,29.2,27.7,29.2c15.2,0,27.7-12.3,27.7-29.2
	c0-13.5-12.5-25.8-27.7-25.8C180,407.2,167.5,419.5,167.5,433L167.5,433z"/>
<path id="Layer-5" serif:id="Layer 5" class="st1" d="M311.9,411c-4.7-3.9-10.7-6.5-16.9-6.5c-4.7,0-10.9,2.7-10.9,8.2
	c0,5.7,6.9,7.9,11.3,9.4l6.5,1.9c13.6,4,24.2,10.9,24.2,26.7c0,9.7-2.3,19.7-10.1,26.3c-7.7,6.5-17.9,9.2-27.8,9.2
	c-12.3,0-24.4-4.2-34.4-11.2l10.9-20.5c6.4,5.6,13.9,10.1,22.6,10.1c6,0,12.3-3,12.3-9.9c0-7.1-10-9.6-15.5-11.1
	c-16-4.5-26.5-8.7-26.5-27.6c0-19.9,14.2-32.8,33.8-32.8c9.9,0,21.9,3.1,30.6,8L311.9,411L311.9,411z"/>
<path id="Layer-6" serif:id="Layer 6" class="st1" d="M363.5,483.6h-25.5v-97.8h39c21,0,35.6,9.7,35.6,32.2
	c0,23.1-12.4,33.2-34.7,33.2h-14.4L363.5,483.6L363.5,483.6z M367.8,406.3h-4.3v24.4h4.3c9.2,0,18.3,0,18.3-11.9
	C386.1,406.5,377.7,406.3,367.8,406.3L367.8,406.3z"/>
<path id="Layer-7" serif:id="Layer 7" class="st1" d="M449.4,407.3v16.3h28.7v21.6h-28.7v16.9h30.3v21.5h-55.7v-97.8h55.7v21.5
	H449.4L449.4,407.3z"/>
<path id="Layer-8" serif:id="Layer 8" class="st0" d="M228.4,381.5l-21.3-7.6c3.1-8.7,8.8-22.4,18.1-38l19.4,11.6
	C235.8,362.2,230.7,375.1,228.4,381.5z M544,378.1l-10.7,1.6c0-0.1-2.4-15.3-12-34.1l20.2-10.3c11.4,22.3,14.1,40.3,14.2,41.1
	L544,378.1L544,378.1z M544,378.1l0.5-0.1l-11.2,1.6L544,378.1L544,378.1z M266.9,317.5l-16.7-15.3c9.8-10.7,20.7-19.9,32.2-27.6
	l12.5,18.9C284.9,300.1,275.5,308.2,266.9,317.5L266.9,317.5z M500.5,315.5c-8.2-8.9-17.7-16.7-28.2-23.1l11.8-19.3
	c12.3,7.5,23.5,16.6,33.1,27.1L500.5,315.5z M438.6,277.6c-11.4-3.4-23.7-5.8-36.8-7L404,248c14.5,1.4,28.4,4,41.2,7.9L438.6,277.6
	L438.6,277.6z M328,277.3l-7.2-21.5c13.1-4.4,27.1-7.2,41.6-8.3l1.8,22.6C351.5,271.1,339.3,273.5,328,277.3z"/>
<path id="Layer-9" serif:id="Layer 9" class="st0" d="M103.3,543L103.3,543c-5.1,0-10.3-0.5-15.6-1.4l3.8-22.3c4,0.7,7.9,1,11.7,1
	c0,0,0,0,0,0c5.2,0,10.2-0.6,14.9-1.9l5.9,21.8C117.5,542.1,110.5,543,103.3,543L103.3,543z M54.1,529.5
	C43.6,523.2,34.6,515,27.4,505l18.4-13.2c5.4,7.5,12.1,13.6,19.9,18.3L54.1,529.5z M156.4,522.6l-15.1-16.9
	c11.1-9.9,16.3-21.3,16.3-21.4l20.7,9.1C178,494,171.3,509.3,156.4,522.6z"/>
</svg>
