<?xml version="1.0" encoding="utf-8"?>
<!-- Generator: Adobe Illustrator 23.0.0, SVG Export Plug-In . SVG Version: 6.00 Build 0)  -->
<svg version="1.1" id="Layer_1" xmlns="http://www.w3.org/2000/svg" xmlns:xlink="http://www.w3.org/1999/xlink" x="0px" y="0px"
	 viewBox="0 0 350 350" style="enable-background:new 0 0 350 350;" xml:space="preserve">
<style type="text/css">
	.st0{fill:#69CBDB;}
	.st1{fill:#C4BA98;}
	.st2{fill:none;}
</style>
<g>
	<g>
		<g>
			<path class="st0" d="M85.3,184.5H72l-11-58.8l-11,58.8H36.2L22.7,98.8h14l7.1,61.2l11-61.2h12.7l11,61.2l7.1-61.2h13.2
				L85.3,184.5z"/>
			<path class="st0" d="M106.1,184.5V98.8h37.6v12.5h-23.4v23.5h19.6v12.5h-19.6V172h23.8v12.5H106.1z"/>
			<path class="st0" d="M217.2,116.9v49.5c0,13-8.6,18.1-21.6,18.1h-21.9V98.8h21.9C208.6,98.8,217.2,103.9,217.2,116.9z
				 M195.2,111.2H188V172h7.2c4.7,0,7.8-1.7,7.8-7.8v-45.1C203,113,199.8,111.2,195.2,111.2z"/>
		</g>
	</g>
	<g>
		<path class="st1" d="M66.5,197.2h17.4v5.8H73.2v11.3h8.9v5.8h-8.9v17.1h-6.6L66.5,197.2L66.5,197.2z"/>
		<path class="st1" d="M105.1,237.3H88.2v-40.1h6.6v34.1h10.3V237.3z"/>
		<path class="st1" d="M138.2,205.7v7.6c0,6.1-4,8.5-10.1,8.5h-3.7v15.5h-6.6v-40.1h10.4C134.2,197.2,138.2,199.6,138.2,205.7z
			 M131.6,206.7c0-2.9-1.5-3.7-3.7-3.7h-3.5v12.9h3.5c2.2,0,3.7-0.8,3.7-3.7V206.7z"/>
		<path class="st1" d="M159,237.3h-16.9v-40.1h6.6v34.1H159V237.3z"/>
		<path class="st1" d="M177.2,228.3h-7.3l-1.4,8.9h-6.4l7.4-40.1h8.4l7.6,40.1h-6.8L177.2,228.3z M176.4,222.8l-2.8-17.8l-2.8,17.8
			H176.4z"/>
		<path class="st1" d="M188.9,237.3v-40.1h6.6l8.4,24.8v-24.8h6.1v40.1h-6.3l-8.8-26.1v26.1H188.9z"/>
		<path class="st1" d="M234,203h-6.7v34.2h-6.6V203H214v-5.8h20V203z"/>
		<path class="st1" d="M250.3,211.5v-5.6c0-2.5-1.4-3.4-3.4-3.4c-1.9,0-3.4,0.9-3.4,3.4v2.7c0,2.1,0.7,3,2.6,4.1l4.7,2.6
			c3.8,2.2,6.1,4,6.1,8.2v5.8c0,6.2-3.8,8.4-9.9,8.4h-0.1c-6.1,0-9.9-2.1-9.9-8.4v-7h6.5v6.1c0,2.5,1.4,3.6,3.4,3.6s3.4-1.1,3.4-3.6
			v-3.1c0-2.1-0.6-3.1-2.6-4.2l-4.6-2.6c-3.9-2.2-6.1-4.1-6.1-8.2V205c0-6,4.4-8.2,9.9-8.2h0.1c5.5,0,9.8,2.3,9.8,8.2v6.5H250.3z"/>
	</g>
	<g>
		<path class="st2" d="M225.8,180c0-2.9,0-7,0.2-11.9C221.1,171.7,220.3,176.4,225.8,180z"/>
	</g>
</g>
<g>
	<rect x="289.7" y="77.6" class="st1" width="5.4" height="5.4"/>
	<path class="st1" d="M232,148.8c0.4-3.8,0.9-6.6,1.6-10.2c0.9-0.6,1.9-1.1,2.9-1.6l0,0c-0.5,1.1,0,2.5,1.8,3.4
		c1.9,0.9,5.6,0.1,5.6,0.1s-1.8-3.3-3.6-4.2c-0.5-0.2-0.9-0.4-1.4-0.4c1.6-0.7,3.2-1.3,4.9-1.9c-0.2,0.2-0.4,0.5-0.5,0.8
		c-0.4,1.2,0.2,2.5,2.1,3.2s5.5-0.4,5.5-0.4s-2.1-3.1-4-3.9c-0.5-0.2-0.9-0.3-1.3-0.3c3.8-1.1,7.4-1.8,10.4-2.2v-1.6
		c-0.7,0-2.5,0-3.4,0.2c1.2-1.2,2-4.1,2-4.1c-0.5,0-3.8,0-5.4,1.1c-1.5,1.1-1.9,2.4-1.4,3.3c-4.8,1.2-7.9,2-13.6,4.6
		c0.9-4,1.7-7.3,2.8-11c0.6-0.4,1.3-0.7,2-1.1c-0.4,1.2,0.2,2.4,2.1,3.1s5.5-0.4,5.5-0.4s-2.1-3.1-4-3.9c-0.3-0.1-0.6-0.2-0.8-0.2
		c1.6-0.7,3.2-1.3,4.7-1.8l1.9-0.6c2-0.6,3.9-1,5.7-1.4c-0.2,0.2-0.4,0.5-0.5,0.8c-0.4,1.2,0.2,2.5,2.1,3.2l0,0v-5.6
		c0-0.2,0-0.4,0-0.7c-5.3,0.4-11.7,1.6-17.5,4.7c1.3-3.7,2.9-7.1,4.6-10.4c1.1-0.7,2.3-1.3,3.5-1.8c0,0.1-0.1,0.2-0.1,0.2
		c-0.3,1.2,0.4,2.4,2.4,3c2,0.5,5.5-0.9,5.5-0.9s-2.3-3-4.3-3.5c-0.2,0-0.3-0.1-0.5-0.1c2.7-1.3,5.3-1.8,7.8-2.4
		c-0.2,0.2-0.3,0.5-0.4,0.8c-0.2,0.8,0,1.6,0.8,2.2c1.2-2.5,3-4.4,5.3-5.9c-2.2,0.1-4.7,0.4-7.3,0.9c1.2-1.7,1.5-4.8,1.5-4.8
		s-3.7,0.6-5.1,2.2c-1.3,1.4-1.4,2.8-0.6,3.7c-2,0.6-4,1.3-5.9,2.2c4.8-6.8,9.5-11.6,14.1-15c-0.2,0.8,0.2,1.8,1.1,2.7
		c1.5,1.5,5.2,2,5.2,2s-0.5-3.7-2-5.2c-0.7-0.7-1.4-1.1-2-1.2c1.3-0.8,2.5-1.6,3.8-2.2c-0.6,1-0.3,2.3,1.3,3.5
		c1.7,1.2,5.5,1.1,5.5,1.1s-1.2-3.6-2.9-4.8c-0.7-0.5-1.3-0.7-1.9-0.8c2.6-1.2,5.3-2.1,7.9-2.9h0.1v3.9h5.4v-5.2
		c0.7-0.1,1.3-0.3,2-0.4c0.3-0.1,0.3-0.5-0.1-0.5c-3.4,0.2-6.6,0.7-9.6,1.4c1.2-1.6,1.8-4.4,1.8-4.4s-3.8,0.2-5.3,1.6
		c-1.6,1.3-1.7,2.8-0.9,3.7c0.1,0.1,0.2,0.2,0.3,0.3c-20.7,6.8-31.6,25.7-37.4,45.4l-0.8,2.7c-3.3,12.5-4.7,25-5.3,34.8
		c-12,7.6-4,14.9-0.3,17.4c1.1,0.8,1.9,1.3,1.9,1.3l0,0l0,0h3c-0.2-6.5-0.2-13.1,0-19.2c4.9-2.3,11.3-3.9,17.3-4.7l0,0
		c0.3,0,0.5-0.2,0.4-0.5c0-0.3-0.2-0.4-0.5-0.4h-0.1c-4.9,0.1-11.1,0.9-17.1,3.5c0.2-4.2,0.4-6.8,0.8-10.8c0.5-0.3,1.1-0.7,1.6-1
		c0,0,0,0.1-0.1,0.1c-0.5,1.1,0,2.5,1.8,3.4c1.9,0.9,5.6,0.1,5.6,0.1s-1.8-3.3-3.6-4.2c-0.6-0.3-1.2-0.4-1.7-0.4
		c1.5-0.8,3-1.4,4.5-2c-0.1,0.1-0.2,0.3-0.3,0.4c-0.5,1.1,0,2.5,1.8,3.4c1.9,0.9,5.6,0.1,5.6,0.1s-1.8-3.3-3.6-4.2
		c-0.5-0.2-1-0.4-1.5-0.4c1.7-0.6,3.4-1.1,4.9-1.5c-0.1,0.2-0.3,0.3-0.4,0.5c-0.5,1.1,0,2.5,1.8,3.4c1.9,0.9,5.6,0.1,5.6,0.1
		s-1.8-3.3-3.6-4.2c-0.4-0.2-0.7-0.3-1-0.4c2-0.4,3.8-0.7,5.3-0.9c-0.3,0.2-0.5,0.5-0.7,0.8c-0.5,1.1,0,2.5,1.8,3.4
		c0.1,0.1,0.3,0.1,0.5,0.2v-5.4C251.1,143.4,240.7,143.8,232,148.8z M225.8,180c-5.5-3.6-4.7-8.3,0.2-11.9
		C225.8,173,225.7,177.1,225.8,180z"/>
	<path class="st0" d="M289.1,128.2v-5.4h5.5l0,0l0,0v-5.4h5.4V116c0-1.5-0.1-2.9-0.4-4.1h-5.1v-5.5h3.2c-3.4-5.9-10.2-8.5-19.3-8.5
		h-1c-5.8,0-10.8,1.1-14.5,3.5c5.5-0.3,9.6,0.3,10.6,0.4c0.4-1,1.6-1.7,3.4-1.2c2,0.4,4.5,3.3,4.5,3.3s-3.4,1.6-5.4,1.1
		c-1.9-0.4-2.7-1.5-2.6-2.6c-0.7,0-2.2,0-4.2,0.2c1.9,0.8,3.9,3.4,3.9,3.4s-3.5,1.4-5.5,0.9s-2.7-1.8-2.4-3c0.1-0.4,0.3-0.7,0.5-0.9
		c-1.7,0.2-3.5,0.5-5.5,0.8h0.1c2,0.5,4.3,3.5,4.3,3.5s-3.5,1.4-5.5,0.9c-0.7-0.2-1.2-0.5-1.6-0.8c-1.1,2.2-1.7,4.9-1.8,8.1
		c6.8-0.5,11.9,0.3,11.9,0.3c0.1,0,0.2,0.1,0.2,0.2c0,0.1-0.1,0.2-0.2,0.2c0,0-1,0-2.8,0.1c0.2,0,0.4,0.1,0.6,0.2
		c1.9,0.7,4,3.9,4,3.9s-3.6,1.1-5.5,0.4c-1.9-0.7-2.6-2-2.1-3.2c0.2-0.5,0.5-0.9,0.9-1.1c-1.7,0.1-3.7,0.4-6,0.7
		c0.2,0,0.4,0.1,0.5,0.2c1.9,0.7,4,3.9,4,3.9s-3.6,1.1-5.5,0.4v4.1v0.2v3.9c4.3,0,7.6,0.5,7.6,0.5c0.1,0,0.2,0.1,0.2,0.2
		s-0.1,0.2-0.2,0.2c0,0-1,0-2.7,0.1h0.1c1.9,0.7,4,3.9,4,3.9s-3.6,1.1-5.5,0.4s-2.6-2-2.1-3.2c0.1-0.3,0.3-0.6,0.5-0.8
		c-0.6,0.1-1.2,0.1-1.8,0.2v12.3c1.7,0,2.8,0.2,2.8,0.2c0.1,0,0.2,0.1,0.2,0.2s-0.1,0.2-0.2,0.2c0,0-0.9,0-2.3,0.2
		c0.3,0.1,0.6,0.2,1,0.3c1.9,0.9,3.6,4.2,3.6,4.2s-3.1,0.7-5.1,0.1v18.4c0,13.3,8.6,18.1,21.6,18.1h1c13,0,21.5-4.9,21.5-18.1V163
		h-5.4v-5.5h5.4v-11.6h-5.4v-5.5h-17.1v12h8.3v12.7c0,6.1-3.2,7.8-7.8,7.8c-4.7,0-7.8-1.7-7.8-7.8v-47c0-6.1,3.2-7.8,7.8-7.8
		c4.7,0,7.8,1.7,7.8,7.8v10h3.4V128.2z M289.1,111.8h5.5v5.5h-5.5L289.1,111.8L289.1,111.8z M289.1,145.9h5.5v5.5h-5.5L289.1,145.9
		L289.1,145.9z"/>
	<g>
		<rect x="322.6" y="106.3" class="st0" width="5.4" height="5.4"/>
		<rect x="300" y="117.3" class="st0" width="5.5" height="5.4"/>
		<rect x="305.6" y="134.2" class="st0" width="5.4" height="5.4"/>
		<rect x="305.6" y="100.9" class="st0" width="5.4" height="5.4"/>
		<rect x="305.6" y="77.6" class="st1" width="5.4" height="5.4"/>
		<rect x="311" y="83.1" class="st1" width="5.4" height="5.4"/>
	</g>
</g>
</svg>
