<svg version="1" xmlns="http://www.w3.org/2000/svg" width="597.333" height="597.333" viewBox="0 0 448.000000 448.000000"><path d="M416.3 193.5l-11.1 11.6-11.3-10.9c-9.3-9-11.5-10.8-12.8-9.9-.9.6-5.2 4.9-9.6 9.5l-8 8.3 11.4 11 11.3 11-2.3 2.6c-1.3 1.4-6.3 6.5-11.2 11.5l-8.7 9 9.7 9.3 9.7 9.4 11.1-11.6 11.1-11.5 11.4 11.1 11.5 11 9.5-9.5 9.5-9.4-11.4-11-11.4-11 3.4-3.7c1.8-2.1 6.4-7.1 10.3-11.1 3.9-4 7.2-7.7 7.4-8.1.2-.5-1-2.2-2.6-3.8-1.6-1.5-5.8-5.6-9.3-9.1l-6.5-6.3-11.1 11.6zM126 185.4c-18.8 5.1-31 20.7-30.4 38.8.8 22.8 16.6 38.6 39.5 39.4 13.1.5 22-2.5 31-10.4 10.2-9.1 15.2-28.3 10.9-41.9-6.2-19.4-30.2-31.6-51-25.9zm20.7 19.9c6.8 3.6 11.3 10.5 11.3 17.5 0 22.5-29.2 30-39.5 10.2-7.4-14.3 3.9-31 20.1-29.6 2.9.2 6.5 1.1 8.1 1.9zM200.8 186.1c-10 3.4-16 12.5-16 24.1.1 11.7 4.3 16 20.1 20.7 7.2 2.2 12.1 5.6 12.1 8.5 0 .8-1 2.7-2.2 4.1-4.1 4.7-11.9 3.9-21-2l-3.7-2.4-4.1 7.5c-2.2 4.1-3.8 7.9-3.5 8.4.9 1.5 9.4 5.6 14.5 7.1 6 1.6 17.5 1.4 23-.6 11.6-4.1 17-11.8 17.1-24.4.1-6.6-.2-7.8-2.8-11.5-3.4-4.9-8.4-7.9-17.8-10.8-6.5-2-11.5-5.4-11.5-7.8 0-.6 1.1-2.2 2.5-3.5 3.2-3.3 8.7-3.3 14.7-.1l4.5 2.4 3.7-7.6c4.2-8.5 4.4-8-5-11.2-8.4-2.8-17.9-3.2-24.6-.9zM.2 224l.3 37.5h16c8.8.1 18.2-.3 20.8-.7 6.8-1 13.3-4.4 16.5-8.5 2.3-3.1 2.7-4.7 2.9-11.1.1-5.8-.3-8.4-1.8-11.4-2.1-4-7-7.8-10.3-7.8-1.9 0-1.9-.1.1-2.3 5.8-6.3 7-15.9 3.1-23.7-1.8-3.5-3.5-5.1-7.2-7-4.7-2.3-6-2.4-22.8-2.5L0 186.4.2 224zm29-20.8c1 .5 2.1 2 2.4 3.4 1.4 5.4-3.4 9.9-9.5 9.1-2.5-.4-2.6-.6-2.6-6.8-.1-3.5.4-6.7.9-7.1 1.1-.8 6.2 0 8.8 1.4zm1.4 27.7c3.3.1 6.4 3.8 6.4 7.5 0 5-2.9 7-10.8 7.4l-6.7.4-.1-7.4c0-4 .4-7.6.9-7.9.5-.4 2.6-.5 4.6-.4 2 .2 4.5.4 5.7.4zM67 224v37.6l9.8-.1 9.7-.1.2-37.2c.1-20.5-.2-37.3-.5-37.3-.4-.1-4.9-.2-9.9-.3l-9.3-.2V224zM247 187c-.4.3-.8 17.2-.8 37.5v37H265.5l.5-12.4.5-12.5 10.3-.2c9.3-.2 10.8-.5 15.5-3.2 7.4-4.1 11-11.2 11-21.4-.1-4.6-.7-8.9-1.8-11.6-2.1-5.2-8.5-10.8-13.9-12.4-4.1-1.1-38.9-1.9-40.6-.8zm29.3 15.9c2.9.2 6.7 4.7 6.7 8 0 7-3.9 10.1-12.6 10.1H266v-8.8c0-4.9.2-9.1.5-9.4.4-.4 2-.4 9.8.1zM312.2 224l.3 37.5h42l.2-8.3.3-8.2-3.3-.1c-1.7 0-6.9-.1-11.4-.1-5.2 0-8.3-.4-8.5-1.2-.2-.6-.4-3.4-.4-6.1l.1-5 11-.5 11-.5-.1-7c-.1-3.9-.2-7.5-.3-8-.1-.7-4-1.1-10.6-1-6.4 0-10.6-.3-10.8-1-.1-.5-.3-3.3-.2-6v-5l11.8-.3 11.8-.3-.3-8.2-.3-8.2H312l.2 37.5z"/></svg>