<?xml version="1.0" encoding="UTF-8" standalone="no"?><!DOCTYPE svg PUBLIC "-//W3C//DTD SVG 1.1//EN" "http://www.w3.org/Graphics/SVG/1.1/DTD/svg11.dtd"><svg width="100%" height="100%" viewBox="0 0 102 52" version="1.1" xmlns="http://www.w3.org/2000/svg" xmlns:xlink="http://www.w3.org/1999/xlink" xml:space="preserve" xmlns:serif="http://www.serif.com/" style="fill-rule:evenodd;clip-rule:evenodd;stroke-linejoin:round;stroke-miterlimit:1.41421;"><path id="Layer-1" serif:id="Layer 1" d="M95.828,23.382l4.131,4.022l-4.857,4.982l4.983,4.853l-4.025,4.127l-4.984,-4.853l-4.882,5.007l-4.131,-4.021l4.885,-5.009l-4.985,-4.853l4.023,-4.128l4.986,4.854l4.856,-4.981Z" style="fill:#e94129;"/><path id="Layer-2" serif:id="Layer 2" d="M9.198,40.608l-6.536,0l0,-16.306l6.06,0c2.9,0 4.848,1.123 4.848,4.238c0,1.472 -0.476,2.659 -1.796,3.33l0,0.044c2.337,0.303 3.333,1.881 3.333,4.152c0,3.418 -2.92,4.541 -5.909,4.542Zm-1.753,-3.244c1.258,0.001 3.376,0.064 3.376,-1.729c0,-1.968 -2.097,-1.773 -3.485,-1.773l-0.432,0l0,3.502l0.541,0Zm-0.239,-9.819l-0.302,0l0,3.158l0.476,0c1.127,-0.001 2.294,-0.195 2.294,-1.579c0,-1.49 -1.318,-1.579 -2.468,-1.579Z" style="fill:#fff;"/><rect id="Layer-3" serif:id="Layer 3" x="17.316" y="24.302" width="4.242" height="16.305" style="fill:#fff;"/><path id="Layer-4" serif:id="Layer 4" d="M41.558,32.152c0,5.277 -3.788,8.998 -9.026,8.998c-5.237,0 -9.025,-3.721 -9.025,-8.998c0,-4.931 4.329,-8.391 9.025,-8.391c4.697,0 9.026,3.46 9.026,8.391Zm-13.636,0.022c0,2.811 2.078,4.866 4.61,4.866c2.532,0 4.611,-2.055 4.611,-4.866c0,-2.249 -2.079,-4.305 -4.611,-4.305c-2.532,0 -4.61,2.056 -4.61,4.305Z" style="fill:#e94129;"/><path id="Layer-5" serif:id="Layer 5" d="M51.976,28.497c-0.78,-0.65 -1.775,-1.081 -2.815,-1.081c-0.778,0 -1.818,0.453 -1.818,1.361c0,0.953 1.148,1.322 1.884,1.559l1.082,0.324c2.272,0.67 4.025,1.816 4.025,4.456c0,1.62 -0.389,3.287 -1.688,4.389c-1.277,1.084 -2.987,1.537 -4.632,1.537c-2.056,0 -4.068,-0.693 -5.735,-1.861l1.817,-3.417c1.061,0.93 2.317,1.687 3.767,1.687c0.996,0 2.056,-0.497 2.056,-1.645c0,-1.188 -1.667,-1.598 -2.576,-1.858c-2.662,-0.757 -4.415,-1.45 -4.415,-4.607c0,-3.31 2.359,-5.472 5.628,-5.472c1.645,0 3.657,0.52 5.108,1.341l-1.688,3.287Z" style="fill:#fff;"/><path id="Layer-6" serif:id="Layer 6" d="M60.591,40.608l-4.242,0l0,-16.306l6.494,0c3.506,0 5.93,1.621 5.93,5.363c0,3.847 -2.074,5.534 -5.779,5.537l-2.403,0l0,5.406Zm0.715,-12.889l-0.715,0l0,4.065l0.715,0c1.537,0 3.051,0 3.051,-1.989c0,-2.05 -1.402,-2.076 -3.051,-2.076Z" style="fill:#fff;"/><path id="Layer-7" serif:id="Layer 7" d="M74.899,27.891l0,2.724l4.784,0l0,3.593l-4.784,0l0,2.811l5.043,0l0,3.589l-9.285,0l0,-16.306l9.285,0l0,3.589l-5.043,0Z" style="fill:#fff;"/><path id="Layer-8" serif:id="Layer 8" d="M38.065,23.578l-3.557,-1.263c0.519,-1.458 1.463,-3.741 3.014,-6.327l3.238,1.938c-1.464,2.443 -2.317,4.59 -2.695,5.652Zm52.607,-0.564l-1.776,0.261c-0.004,-0.025 -0.396,-2.55 -1.995,-5.676l3.363,-1.716c1.9,3.719 2.349,6.721 2.368,6.849l-1.96,0.282Zm0,0l0.091,-0.013l-1.867,0.269l1.776,-0.256Zm-46.188,-10.096l-2.777,-2.555c1.638,-1.777 3.445,-3.324 5.371,-4.599l2.086,3.144c-1.674,1.108 -3.248,2.458 -4.68,4.01Zm38.94,-0.335c-1.374,-1.49 -2.955,-2.785 -4.705,-3.848l1.96,-3.223c2.052,1.246 3.91,2.766 5.523,4.518l-2.778,2.553Zm-10.316,-6.323c-1.894,-0.572 -3.956,-0.964 -6.126,-1.167l0.352,-3.756c2.421,0.226 4.731,0.668 6.867,1.313l-1.093,3.61Zm-18.449,-0.036l-1.199,-3.576c2.188,-0.733 4.52,-1.201 6.93,-1.391l0.297,3.76c-2.103,0.166 -4.131,0.573 -6.028,1.207Z" style="fill:#e94129;"/><path id="Layer-9" serif:id="Layer 9" d="M17.217,50.499l-0.005,0c-0.844,0 -1.717,-0.077 -2.593,-0.228l0.639,-3.717c0.666,0.115 1.324,0.171 1.955,0.171c0.001,0 0.002,0 0.003,0c0.86,0 1.697,-0.107 2.488,-0.321l0.987,3.64c-1.111,0.302 -2.279,0.454 -3.474,0.455Zm-8.206,-2.254c-1.748,-1.041 -3.243,-2.416 -4.444,-4.084l3.066,-2.203c0.896,1.247 2.011,2.272 3.312,3.048l-1.934,3.239Zm17.048,-1.15l-2.513,-2.813c1.847,-1.648 2.709,-3.549 2.717,-3.566l3.457,1.513c-0.046,0.107 -1.171,2.647 -3.661,4.866Z" style="fill:#e94129;"/></svg>