<?xml version="1.0" encoding="UTF-8" standalone="no"?>
<!DOCTYPE svg PUBLIC "-//W3C//DTD SVG 20010904//EN"
              "http://www.w3.org/TR/2001/REC-SVG-20010904/DTD/svg10.dtd">

<svg xmlns="http://www.w3.org/2000/svg"
     width="5.2in" height="1.05556in"
     viewBox="0 0 468 95">
  <path id="Selection"
        fill="none" stroke="black" stroke-width="1"
        d="M 394.00,5.00
           C 391.00,8.00 378.17,20.11 377.17,23.00
             376.04,26.27 378.86,28.72 381.02,30.72
             381.02,30.72 391.99,41.00 391.99,41.00
             393.41,42.48 395.96,44.80 395.96,47.00
             395.96,49.42 392.60,52.37 391.00,54.00
             391.00,54.00 376.00,69.00 376.00,69.00
             376.00,69.00 395.00,89.00 395.00,89.00
             400.16,85.31 406.46,78.81 410.72,74.00
             412.39,72.11 415.25,68.04 418.00,68.04
             420.59,68.04 424.23,72.24 426.00,74.00
             430.79,78.77 435.91,85.12 442.00,88.00
             442.00,88.00 460.00,69.00 460.00,69.00
             456.54,64.17 441.89,50.50 437.00,47.00
             437.00,47.00 459.00,24.00 459.00,24.00
             456.62,20.67 454.86,18.88 452.00,16.00
             449.88,13.87 443.54,6.97 441.00,6.34
             437.89,5.56 434.97,9.07 433.00,11.00
             430.66,13.30 420.24,24.21 418.28,25.04
             415.46,26.23 412.78,22.73 411.00,20.99
             405.57,15.68 400.12,9.38 394.00,5.00 Z
           M 145.00,6.43
           C 132.90,8.42 123.40,11.99 115.52,22.00
             102.15,38.99 106.23,65.45 123.00,78.61
             131.43,85.23 144.48,88.09 155.00,86.57
             162.62,85.48 168.69,83.68 175.00,79.07
             193.03,65.90 196.46,38.36 182.48,21.01
             174.22,10.76 157.97,4.84 145.00,6.43 Z
           M 239.00,29.00
           C 240.59,26.00 245.98,17.30 245.19,14.21
             243.92,9.24 229.45,7.12 225.00,7.01
             206.65,6.58 196.76,15.41 197.00,34.00
             197.17,46.57 203.33,49.44 214.00,53.00
             218.15,54.38 224.93,55.93 227.08,60.05
             229.57,64.85 224.28,69.24 218.00,68.78
             210.50,68.22 205.96,61.98 202.21,63.30
             199.84,64.13 197.81,68.82 196.76,71.00
             195.97,72.64 194.67,75.03 194.99,76.90
             195.49,79.87 199.52,81.53 202.00,82.55
             210.10,85.86 214.47,86.10 223.00,86.00
             239.49,85.80 250.95,74.84 249.91,58.00
             249.26,47.44 243.53,42.28 234.00,38.86
             229.65,37.30 220.96,35.76 219.17,30.96
             217.92,27.63 221.13,25.17 224.00,24.44
             229.11,23.16 234.58,26.89 239.00,29.00 Z
           M 12.00,9.00
           C 12.00,9.00 12.00,84.00 12.00,84.00
             12.00,84.00 45.00,84.00 45.00,84.00
             50.95,83.97 57.03,82.92 61.98,79.35
             73.22,71.26 73.80,47.53 55.00,44.00
             57.08,42.33 58.53,41.29 59.99,38.96
             65.58,30.10 62.72,15.73 53.00,11.19
             45.25,7.57 21.63,9.00 12.00,9.00 Z
           M 79.00,9.00
           C 79.00,9.00 79.00,84.00 79.00,84.00
             79.00,84.00 99.00,84.00 99.00,84.00
             99.00,84.00 99.00,9.00 99.00,9.00
             99.00,9.00 79.00,9.00 79.00,9.00 Z
           M 258.00,9.00
           C 258.00,9.00 258.00,84.00 258.00,84.00
             258.00,84.00 278.00,84.00 278.00,84.00
             278.00,84.00 278.00,60.00 278.00,60.00
             287.31,60.00 300.21,60.34 307.91,54.36
             319.21,45.60 318.66,22.04 306.98,13.65
             301.85,9.95 295.15,9.03 289.00,9.00
             289.00,9.00 258.00,9.00 258.00,9.00 Z
           M 324.00,9.00
           C 324.00,9.00 324.00,84.00 324.00,84.00
             324.00,84.00 367.00,84.00 367.00,84.00
             367.00,84.00 367.00,67.00 367.00,67.00
             367.00,67.00 344.00,67.00 344.00,67.00
             344.00,67.00 344.00,55.00 344.00,55.00
             344.00,55.00 366.00,55.00 366.00,55.00
             366.00,55.00 366.00,38.00 366.00,38.00
             366.00,38.00 344.00,38.00 344.00,38.00
             344.00,38.00 344.00,26.00 344.00,26.00
             344.00,26.00 367.00,26.00 367.00,26.00
             367.00,26.00 367.00,9.00 367.00,9.00
             367.00,9.00 324.00,9.00 324.00,9.00 Z
           M 32.00,38.00
           C 32.00,38.00 32.00,25.00 32.00,25.00
             34.63,25.01 38.49,24.78 40.77,26.17
             44.67,28.55 44.67,34.45 40.77,36.83
             38.49,38.22 34.63,37.99 32.00,38.00 Z
           M 278.00,43.00
           C 278.00,43.00 278.00,25.00 278.00,25.00
             281.94,25.00 287.47,24.75 290.89,26.93
             296.02,30.21 296.46,38.64 290.89,41.69
             287.76,43.40 281.62,43.00 278.00,43.00 Z
           M 145.00,26.33
           C 153.03,25.44 161.06,27.33 166.20,34.09
             175.27,46.02 167.54,64.13 153.00,66.67
             126.86,71.25 118.55,32.84 145.00,26.33 Z
           M 32.00,69.00
           C 32.00,69.00 32.00,54.00 32.00,54.00
             36.03,53.50 42.15,52.91 45.77,55.17
             49.40,57.44 50.02,63.47 46.69,66.27
             43.56,68.90 35.98,68.99 32.00,69.00 Z" />
</svg>
